<svg version="1.1" xmlns="http://www.w3.org/2000/svg" xmlns:xlink="http://www.w3.org/1999/xlink" width="800" height="800"><defs/><g transform="scale(2,2)"><g id="background-aa1dfc38"><rect fill="white" stroke="none" x="0" y="0" width="400" height="400" class="dcg-svg-background"/></g><g id="background-images-aa1dfc38"/><g id="graphpaper-aa1dfc38"><g id="grid-aa1dfc38"><g><path fill="none" stroke="rgb(0,0,0)" class="dcg-svg-minor-gridline" paint-order="fill stroke markers" d=" M 21.5 0 L 21.5 400" stroke-opacity="0.2" stroke-miterlimit="10" stroke-dasharray=""/><path fill="none" stroke="rgb(0,0,0)" class="dcg-svg-minor-gridline" paint-order="fill stroke markers" d=" M 57.5 0 L 57.5 400" stroke-opacity="0.2" stroke-miterlimit="10" stroke-dasharray=""/><path fill="none" stroke="rgb(0,0,0)" class="dcg-svg-minor-gridline" paint-order="fill stroke markers" d=" M 93.5 0 L 93.5 400" stroke-opacity="0.2" stroke-miterlimit="10" stroke-dasharray=""/><path fill="none" stroke="rgb(0,0,0)" class="dcg-svg-minor-gridline" paint-order="fill stroke markers" d=" M 128.5 0 L 128.5 400" stroke-opacity="0.2" stroke-miterlimit="10" stroke-dasharray=""/><path fill="none" stroke="rgb(0,0,0)" class="dcg-svg-minor-gridline" paint-order="fill stroke markers" d=" M 200.5 0 L 200.5 400" stroke-opacity="0.2" stroke-miterlimit="10" stroke-dasharray=""/><path fill="none" stroke="rgb(0,0,0)" class="dcg-svg-minor-gridline" paint-order="fill stroke markers" d=" M 236.5 0 L 236.5 400" stroke-opacity="0.2" stroke-miterlimit="10" stroke-dasharray=""/><path fill="none" stroke="rgb(0,0,0)" class="dcg-svg-minor-gridline" paint-order="fill stroke markers" d=" M 271.5 0 L 271.5 400" stroke-opacity="0.2" stroke-miterlimit="10" stroke-dasharray=""/><path fill="none" stroke="rgb(0,0,0)" class="dcg-svg-minor-gridline" paint-order="fill stroke markers" d=" M 307.5 0 L 307.5 400" stroke-opacity="0.2" stroke-miterlimit="10" stroke-dasharray=""/><path fill="none" stroke="rgb(0,0,0)" class="dcg-svg-minor-gridline" paint-order="fill stroke markers" d=" M 343.5 0 L 343.5 400" stroke-opacity="0.2" stroke-miterlimit="10" stroke-dasharray=""/><path fill="none" stroke="rgb(0,0,0)" class="dcg-svg-minor-gridline" paint-order="fill stroke markers" d=" M 378.5 0 L 378.5 400" stroke-opacity="0.2" stroke-miterlimit="10" stroke-dasharray=""/><path fill="none" stroke="rgb(0,0,0)" class="dcg-svg-minor-gridline" paint-order="fill stroke markers" d=" M 0 379.5 L 400 379.5" stroke-opacity="0.2" stroke-miterlimit="10" stroke-dasharray=""/><path fill="none" stroke="rgb(0,0,0)" class="dcg-svg-minor-gridline" paint-order="fill stroke markers" d=" M 0 343.5 L 400 343.5" stroke-opacity="0.2" stroke-miterlimit="10" stroke-dasharray=""/><path fill="none" stroke="rgb(0,0,0)" class="dcg-svg-minor-gridline" paint-order="fill stroke markers" d=" M 0 308.5 L 400 308.5" stroke-opacity="0.2" stroke-miterlimit="10" stroke-dasharray=""/><path fill="none" stroke="rgb(0,0,0)" class="dcg-svg-minor-gridline" paint-order="fill stroke markers" d=" M 0 272.5 L 400 272.5" stroke-opacity="0.2" stroke-miterlimit="10" stroke-dasharray=""/><path fill="none" stroke="rgb(0,0,0)" class="dcg-svg-minor-gridline" paint-order="fill stroke markers" d=" M 0 236.5 L 400 236.5" stroke-opacity="0.2" stroke-miterlimit="10" stroke-dasharray=""/><path fill="none" stroke="rgb(0,0,0)" class="dcg-svg-minor-gridline" paint-order="fill stroke markers" d=" M 0 165.5 L 400 165.5" stroke-opacity="0.2" stroke-miterlimit="10" stroke-dasharray=""/><path fill="none" stroke="rgb(0,0,0)" class="dcg-svg-minor-gridline" paint-order="fill stroke markers" d=" M 0 129.5 L 400 129.5" stroke-opacity="0.2" stroke-miterlimit="10" stroke-dasharray=""/><path fill="none" stroke="rgb(0,0,0)" class="dcg-svg-minor-gridline" paint-order="fill stroke markers" d=" M 0 93.5 L 400 93.5" stroke-opacity="0.2" stroke-miterlimit="10" stroke-dasharray=""/><path fill="none" stroke="rgb(0,0,0)" class="dcg-svg-minor-gridline" paint-order="fill stroke markers" d=" M 0 58.5 L 400 58.5" stroke-opacity="0.2" stroke-miterlimit="10" stroke-dasharray=""/><path fill="none" stroke="rgb(0,0,0)" class="dcg-svg-minor-gridline" paint-order="fill stroke markers" d=" M 0 22.5 L 400 22.5" stroke-opacity="0.2" stroke-miterlimit="10" stroke-dasharray=""/><path fill="none" stroke="rgb(0,0,0)" class="dcg-svg-major-gridline" paint-order="fill stroke markers" d=" M 21.5 0 L 21.5 400" stroke-opacity="0.2500000000000001" stroke-miterlimit="10" stroke-dasharray=""/><path fill="none" stroke="rgb(0,0,0)" class="dcg-svg-major-gridline" paint-order="fill stroke markers" d=" M 307.5 0 L 307.5 400" stroke-opacity="0.2500000000000001" stroke-miterlimit="10" stroke-dasharray=""/><path fill="none" stroke="rgb(0,0,0)" class="dcg-svg-major-gridline" paint-order="fill stroke markers" d=" M 0 343.5 L 400 343.5" stroke-opacity="0.2500000000000001" stroke-miterlimit="10" stroke-dasharray=""/><path fill="none" stroke="rgb(0,0,0)" class="dcg-svg-major-gridline" paint-order="fill stroke markers" d=" M 0 58.5 L 400 58.5" stroke-opacity="0.2500000000000001" stroke-miterlimit="10" stroke-dasharray=""/></g></g><g id="axis-aa1dfc38"><g id="yaxis-aa1dfc38"><title>Y axis</title><path fill="none" stroke="rgb(0,0,0)" class="dcg-svg-axis-line" paint-order="fill stroke markers" d=" M 165 0 L 165 400" stroke-opacity="0.9" stroke-miterlimit="10" stroke-width="1.5" stroke-dasharray=""/></g><g id="xaxis-aa1dfc38"><title>X axis</title><path fill="none" stroke="rgb(0,0,0)" class="dcg-svg-axis-line" paint-order="fill stroke markers" d=" M 0 201 L 400 201" stroke-opacity="0.9" stroke-miterlimit="10" stroke-width="1.5" stroke-dasharray=""/></g><g><g class="dcg-svg-axis-value"><text fill="none" stroke="#ffffff" font-family="Arial" font-size="14px" font-style="normal" font-weight="normal" text-decoration="normal" x="156.27089106317996" y="217.27388435019358" text-anchor="middle" stroke-miterlimit="2" stroke-width="3" stroke-dasharray="">0</text><text fill="#000000" stroke="none" font-family="Arial" font-size="14px" font-style="normal" font-weight="normal" text-decoration="normal" x="156.27089106317996" y="217.27388435019358" text-anchor="middle">0</text></g><g class="dcg-svg-axis-value"><text fill="none" stroke="#ffffff" font-family="Arial" font-size="14px" font-style="normal" font-weight="normal" text-decoration="normal" x="19.95413224034033" y="217.27388435019358" text-anchor="middle" stroke-miterlimit="2" stroke-width="3" stroke-dasharray="">-2</text><text fill="#000000" stroke="none" font-family="Arial" font-size="14px" font-style="normal" font-weight="normal" text-decoration="normal" x="19.95413224034033" y="217.27388435019358" text-anchor="middle">-2</text></g><g class="dcg-svg-axis-value"><text fill="none" stroke="#ffffff" font-family="Arial" font-size="14px" font-style="normal" font-weight="normal" text-decoration="normal" x="308.04272801101956" y="217.27388435019358" text-anchor="middle" stroke-miterlimit="2" stroke-width="3" stroke-dasharray="">2</text><text fill="#000000" stroke="none" font-family="Arial" font-size="14px" font-style="normal" font-weight="normal" text-decoration="normal" x="308.04272801101956" y="217.27388435019358" text-anchor="middle">2</text></g><g class="dcg-svg-axis-value"><text fill="none" stroke="#ffffff" font-family="Arial" font-size="14px" font-style="normal" font-weight="normal" text-decoration="normal" x="153.93983637567996" y="348.1526548917832" text-anchor="middle" stroke-miterlimit="2" stroke-width="3" stroke-dasharray="">-2</text><text fill="#000000" stroke="none" font-family="Arial" font-size="14px" font-style="normal" font-weight="normal" text-decoration="normal" x="153.93983637567996" y="348.1526548917832" text-anchor="middle">-2</text></g><g class="dcg-svg-axis-value"><text fill="none" stroke="#ffffff" font-family="Arial" font-size="14px" font-style="normal" font-weight="normal" text-decoration="normal" x="156.27089106317996" y="62.39511380860396" text-anchor="middle" stroke-miterlimit="2" stroke-width="3" stroke-dasharray="">2</text><text fill="#000000" stroke="none" font-family="Arial" font-size="14px" font-style="normal" font-weight="normal" text-decoration="normal" x="156.27089106317996" y="62.39511380860396" text-anchor="middle">2</text></g></g></g></g><g id="expressions-aa1dfc38"><g id="sketch-aa1dfc38"><title>Expression 1</title><path fill="#000000" stroke="none" paint-order="stroke fill markers" d="" fill-opacity="0.4"/><path fill="#000000" stroke="none" paint-order="stroke fill markers" d="" fill-opacity="0.4"/><g><path fill="none" stroke="#000000" class="dcg-svg-curve" paint-order="fill stroke markers" d=" M 93.22457219863514 200.9658843501936 L 93.22457219863514 200.9658843501936 L 93.34765625000001 205.15706899507273 L 93.73828124999999 209.5165419001883 L 94.32421875 213.45040572140468 L 95.10546874999999 217.24864097982405 L 96.08203125 220.96571290690602 L 97.25390625 224.61570721665547 L 98.62109375 228.20038810719487 L 100.18359375 231.71655325102572 L 101.94140625 235.15857228873406 L 103.9921875 238.67694132742517 L 106.23828125000001 242.07005630366538 L 108.6796875 245.33700001363803 L 111.4140625 248.58310233298 L 114.44140625000001 251.76508128047166 L 117.66406250000001 254.75979860344603 L 121.27734375000001 257.7134450771562 L 125.18359374999999 260.496499580248 L 129.1875 262.96532149897416 L 133.2890625 265.137906585567 L 137.48828125 267.02529894260374 L 141.6875 268.6000996012041 L 145.88671874999997 269.883740430904 L 150.18359375 270.9125400028334 L 154.48046875000003 271.66583100022217 L 158.77734375 272.1523602058312 L 163.07421875 272.3775801868989 L 167.37109375 272.3439645212337 L 171.66796875 272.0511460057098 L 175.96484375 271.49589632710627 L 180.26171875 270.67194451280886 L 184.4609375 269.5978461142947 L 188.66015625 268.2451569800113 L 192.76171875 266.63850965940026 L 196.86328125 264.7283395620475 L 200.8671875 262.54388336145456 L 204.77343750000003 260.0745715267708 L 208.58203125 257.30325813262687 L 212.1953125 254.2909224925187 L 215.51562500000003 251.13548443178274 L 218.54296875 247.8702740788171 L 221.27734375 244.5316818988847 L 223.71875 241.16121698828866 L 225.96484375 237.645719615262 L 227.91796875 234.16538949658008 L 229.67578125 230.5767435101887 L 231.23828124999997 226.8745159145684 L 232.5078125 223.34124779052644 L 233.58203125 219.77507873528924 L 234.46093749999997 216.19422635353746 L 235.14453125 212.62934821138236 L 235.6328125 209.15054211731777 L 235.92578125 205.99888992595555 L 236.0234375 204.34333648954888 L 236.10334274022478 200.9658843501936" stroke-linecap="round" stroke-linejoin="round" stroke-miterlimit="10" stroke-width="2.5" stroke-opacity="0.9" stroke-dasharray=""/></g><g><path fill="none" stroke="#000000" class="dcg-svg-curve" paint-order="fill stroke markers" d=" M 93.22457219863514 200.9658843501936 L 93.22457219863514 200.9658843501936 L 93.34765625000001 196.77469970531442 L 93.73828124999999 192.41522680019887 L 94.32421875 188.4813629789825 L 95.10546874999999 184.6831277205631 L 96.08203125 180.96605579348113 L 97.25390625 177.31606148373172 L 98.62109375 173.7313805931923 L 100.18359375 170.21521544936144 L 101.94140625 166.7731964116531 L 103.9921875 163.254827372962 L 106.23828125000001 159.86171239672177 L 108.6796875 156.59476868674915 L 111.4140625 153.3486663674072 L 114.44140625000001 150.1666874199155 L 117.66406250000001 147.17197009694112 L 121.27734375000001 144.21832362323093 L 125.18359374999999 141.4352691201392 L 129.1875 138.96644720141302 L 133.2890625 136.79386211482012 L 137.48828125 134.90646975778338 L 141.6875 133.3316690991831 L 145.88671874999997 132.04802826948315 L 150.18359375 131.01922869755379 L 154.48046875000003 130.265937700165 L 158.77734375 129.77940849455598 L 163.07421875 129.5541885134882 L 167.37109375 129.58780417915347 L 171.66796875 129.88062269467736 L 175.96484375 130.43587237328092 L 180.26171875 131.25982418757826 L 184.4609375 132.33392258609246 L 188.66015625 133.68661172037588 L 192.76171875 135.29325904098687 L 196.86328125 137.20342913833963 L 200.8671875 139.38788533893262 L 204.77343750000003 141.85719717361633 L 208.58203125 144.62851056776032 L 212.1953125 147.6408462078685 L 215.51562500000003 150.7962842686044 L 218.54296875 154.0614946215701 L 221.27734375 157.40008680150248 L 223.71875 160.77055171209852 L 225.96484375 164.28604908512514 L 227.91796875 167.76637920380708 L 229.67578125 171.35502519019846 L 231.23828124999997 175.05725278581878 L 232.5078125 178.59052090986071 L 233.58203125 182.15668996509794 L 234.46093749999997 185.73754234684972 L 235.14453125 189.3024204890048 L 235.6328125 192.78122658306938 L 235.92578125 195.9328787744316 L 236.0234375 197.58843221083828 L 236.10334274022478 200.9658843501936" stroke-linecap="round" stroke-linejoin="round" stroke-miterlimit="10" stroke-width="2.5" stroke-opacity="0.9" stroke-dasharray=""/></g></g></g><g id="labels-aa1dfc38"/></g></svg>